<svg xmlns="http://www.w3.org/2000/svg" viewBox="0 0 119.66 40"><path d="M110.13 0H7.52a13.51 13.51 0 00-2 .18 6.74 6.74 0 00-1.9.63A6.07 6.07 0 002 2 6.07 6.07 0 00.82 3.62a6.74 6.74 0 00-.63 1.9 12.18 12.18 0 00-.17 2v24.96a12.18 12.18 0 00.17 2 6.8 6.8 0 00.63 1.91A6.19 6.19 0 002 38a6.07 6.07 0 001.62 1.18 6.74 6.74 0 001.9.63 13.51 13.51 0 002 .18h104.62a13.39 13.39 0 002-.18 6.91 6.91 0 001.91-.63 6.24 6.24 0 001.62-1.18 6.68 6.68 0 001.18-1.61 7.12 7.12 0 00.62-1.91 13.39 13.39 0 00.18-2V7.52a13.39 13.39 0 00-.18-2 7.05 7.05 0 00-.62-1.9A6.54 6.54 0 00117.67 2a6.24 6.24 0 00-1.62-1.18 6.91 6.91 0 00-1.91-.63 13.39 13.39 0 00-2-.18h-2z" fill="#b7b7b7"/><path d="M8.44 39.12h-.9A11.52 11.52 0 015.67 39 5.89 5.89 0 014 38.4a5.16 5.16 0 01-1.39-1 5.19 5.19 0 01-1-1.4 5.79 5.79 0 01-.55-1.66 12.1 12.1 0 01-.16-1.87V7.55a12 12 0 01.16-1.87A5.69 5.69 0 011.6 4a5.06 5.06 0 011-1.4 5.52 5.52 0 011.4-1 5.79 5.79 0 011.66-.55A12.1 12.1 0 017.54.89h104.59a12.08 12.08 0 011.86.16 6 6 0 011.67.55 5.49 5.49 0 012.41 2.4 5.92 5.92 0 01.54 1.65 13.68 13.68 0 01.17 1.88v24.94a13.12 13.12 0 01-.17 1.85 5.85 5.85 0 01-.54 1.67 5.42 5.42 0 01-1 1.39 5.19 5.19 0 01-1.4 1A5.59 5.59 0 01114 39a11.52 11.52 0 01-1.87.16H8.44z" fill="#010101"/><path d="M24.77 20.3a4.92 4.92 0 012.36-4.15 5.08 5.08 0 00-4-2.16c-1.67-.18-3.3 1-4.16 1s-2.19-1-3.61-1a5.31 5.31 0 00-4.47 2.73C9 20.11 10.4 25 12.25 27.74c.93 1.33 2 2.81 3.43 2.75s1.9-.88 3.58-.88 2.14.88 3.59.85 2.43-1.33 3.32-2.67a11.09 11.09 0 001.52-3.09 4.77 4.77 0 01-2.92-4.4zM22 12.21a4.89 4.89 0 001.11-3.49 5 5 0 00-3.21 1.66 4.65 4.65 0 00-1.14 3.36A4.11 4.11 0 0022 12.21zm20.3 14.93h-4.73l-1.14 3.36h-2l4.48-12.42H41l4.48 12.42h-2zm-4.24-1.55h3.75L40 20.14h-.05zm17.1.41c0 2.81-1.51 4.62-3.78 4.62A3.09 3.09 0 0148.53 29v4.48h-1.9v-12h1.8V23a3.22 3.22 0 012.89-1.6c2.33-.05 3.84 1.76 3.84 4.6zm-1.91 0c0-1.83-1-3-2.39-3s-2.38 1.23-2.38 3 1 3.05 2.38 3.05 2.39-1.23 2.39-3.05zm11.87 0c0 2.81-1.5 4.62-3.77 4.62A3.08 3.08 0 0158.5 29v4.48h-1.9v-12h1.8V23a3.22 3.22 0 012.88-1.6c2.33-.05 3.84 1.76 3.84 4.6zm-1.91 0c0-1.83-.94-3-2.39-3s-2.37 1.23-2.37 3 .95 3 2.37 3 2.39-1.18 2.39-3zm8.5 1c.14 1.23 1.33 2 3 2s2.69-.81 2.69-1.92-.68-1.54-2.29-1.94l-1.61-.39c-2.28-.55-3.33-1.61-3.33-3.34 0-2.15 1.86-3.62 4.51-3.62s4.43 1.47 4.49 3.62h-1.91c-.11-1.24-1.14-2-2.63-2s-2.52.75-2.52 1.86c0 .87.65 1.39 2.25 1.79l1.37.33c2.55.6 3.61 1.63 3.61 3.44 0 2.33-1.86 3.78-4.8 3.78-2.75 0-4.61-1.42-4.73-3.66zm11.64-7.7v2.14h1.72v1.47h-1.72v5c0 .77.34 1.13 1.1 1.13a5 5 0 00.61 0v1.46a5.21 5.21 0 01-1 .09c-1.84 0-2.55-.69-2.55-2.45v-5.23h-1.35v-1.47h1.32V19.3zm2.71 6.7c0-2.85 1.68-4.64 4.3-4.64s4.29 1.79 4.29 4.64-1.65 4.61-4.29 4.61-4.3-1.78-4.3-4.61zm6.7 0c0-1.95-.9-3.11-2.4-3.11S88 24 88 26s.89 3.11 2.4 3.11 2.36-1.18 2.36-3.11zm3.43-4.56H98V23a2.16 2.16 0 012.18-1.63 2.58 2.58 0 01.64.07v1.74A2.37 2.37 0 00100 23a1.88 1.88 0 00-2 2.13v5.37h-1.81zm13.19 6.4c-.25 1.64-1.85 2.77-3.89 2.77-2.64 0-4.27-1.77-4.27-4.6s1.64-4.68 4.19-4.68 4.08 1.72 4.08 4.47v.63h-6.4v.12a2.36 2.36 0 002.44 2.56 2.05 2.05 0 002.09-1.27zm-6.28-2.71h4.53a2.17 2.17 0 00-2.22-2.29 2.3 2.3 0 00-2.31 2.29zM35.66 8.38h2.24a3.22 3.22 0 011.61.38 2.42 2.42 0 011 1.07 3.71 3.71 0 01.36 1.7 3.8 3.8 0 01-.36 1.72 2.4 2.4 0 01-1 1.09 3.29 3.29 0 01-1.62.38h-2.23zm2.15 5.49A2.26 2.26 0 0039 13.6a1.67 1.67 0 00.7-.78 3 3 0 00.24-1.27 3 3 0 00-.24-1.26 1.74 1.74 0 00-.71-.78 2.3 2.3 0 00-1.13-.26h-1.21v4.63zm5.19.65a1.94 1.94 0 01-.77-.83 2.78 2.78 0 01-.27-1.28 2.8 2.8 0 01.27-1.27 2.06 2.06 0 01.77-.84 2.45 2.45 0 012.31 0 1.91 1.91 0 01.76.83 2.65 2.65 0 01.28 1.27 2.73 2.73 0 01-.35 1.3 2 2 0 01-.76.82 2.37 2.37 0 01-2.31 0zm1.8-.69a1.25 1.25 0 00.42-.55 2.26 2.26 0 00.15-.87 2.24 2.24 0 00-.15-.86 1.16 1.16 0 00-.42-.54 1.19 1.19 0 00-1.29 0 1.31 1.31 0 00-.43.54 2.24 2.24 0 00-.15.86 2.26 2.26 0 00.15.87 1.26 1.26 0 00.43.55 1.18 1.18 0 00.65.19 1.12 1.12 0 00.61-.19zM47 10.1h.95l.84 3.64.95-3.64h.92l1 3.64.84-3.64h.94l-1.26 4.63h-1l-1-3.47-1 3.47h-1zm7.36 0h1v.7a1.47 1.47 0 01.54-.57 1.71 1.71 0 01.88-.22 1.54 1.54 0 011.18.46 1.81 1.81 0 01.42 1.26v3h-1v-2.81a1.22 1.22 0 00-.24-.81 1 1 0 00-.74-.28 1.11 1.11 0 00-.58.15 1 1 0 00-.38.42 1.39 1.39 0 00-.14.63v2.7h-1zm5.31-1.72h.95v6.35h-.95zm3.13 6.14a1.91 1.91 0 01-.76-.83 2.78 2.78 0 01-.28-1.28 2.8 2.8 0 01.24-1.28 2 2 0 01.77-.83 2.43 2.43 0 012.3 0 1.94 1.94 0 01.77.83 2.77 2.77 0 01.27 1.27 2.86 2.86 0 01-.27 1.29 2 2 0 01-.77.82 2.14 2.14 0 01-1.15.3 2.2 2.2 0 01-1.12-.29zm1.81-.69a1.25 1.25 0 00.42-.55 2.26 2.26 0 00.15-.87 2.24 2.24 0 00-.15-.86 1.12 1.12 0 00-.43-.55 1.07 1.07 0 00-.64-.19 1.05 1.05 0 00-.64.19 1.17 1.17 0 00-.43.54 2.24 2.24 0 00-.15.86 2.26 2.26 0 00.15.87 1.2 1.2 0 00.43.55 1.19 1.19 0 001.29 0zm3.18.8a1.28 1.28 0 01-.54-.49 1.35 1.35 0 01-.19-.73 1.17 1.17 0 01.45-1 2.25 2.25 0 011.27-.4l1.75-.11v.67l-1.63.1a1.16 1.16 0 00-.65.21.54.54 0 00-.23.47.56.56 0 00.23.48 1 1 0 00.61.17 1.32 1.32 0 00.6-.13 1 1 0 00.42-.38A1 1 0 0070 13v-1.38a.75.75 0 00-.23-.6 1 1 0 00-.68-.22 1.08 1.08 0 00-.66.18.68.68 0 00-.31.45h-.9v-.05a1.32 1.32 0 01.27-.72 1.54 1.54 0 01.64-.5 2.45 2.45 0 011-.19 2.41 2.41 0 011 .19 1.54 1.54 0 01.64.53 1.38 1.38 0 01.23.81v3.19h-1V14a1.61 1.61 0 01-.35.43 1.83 1.83 0 01-.49.28 1.57 1.57 0 01-.58.1 1.73 1.73 0 01-.79-.18zm5.21-.11a1.82 1.82 0 01-.68-.83 3.12 3.12 0 01-.23-1.28 3.33 3.33 0 01.23-1.28 1.91 1.91 0 01.68-.82 1.72 1.72 0 011-.3 1.61 1.61 0 011.46.88V8.38h.95v6.35h-.95v-.79a1.58 1.58 0 01-1.45.88 1.73 1.73 0 01-1.01-.3zm1.9-.72a1.28 1.28 0 00.44-.55 2.17 2.17 0 00.15-.84 1.92 1.92 0 00-.16-.83 1.26 1.26 0 00-.43-.55 1.05 1.05 0 00-.63-.2 1.16 1.16 0 00-.65.19 1.25 1.25 0 00-.42.55 2.3 2.3 0 00-.14.84 2.4 2.4 0 00.14.85 1.25 1.25 0 00.42.55 1.16 1.16 0 00.65.19 1.05 1.05 0 00.65-.2zm5.78.72a1.94 1.94 0 01-.77-.83 2.78 2.78 0 01-.27-1.28 2.8 2.8 0 01.27-1.27 2.06 2.06 0 01.77-.83 2.43 2.43 0 012.3 0 1.94 1.94 0 01.77.83A2.65 2.65 0 0184 12.4a2.73 2.73 0 01-.28 1.29 2 2 0 01-.76.82 2.37 2.37 0 01-2.31 0zm1.8-.69a1.25 1.25 0 00.42-.55 2.26 2.26 0 00.15-.87 2.24 2.24 0 00-.15-.86 1.16 1.16 0 00-.42-.54 1.11 1.11 0 00-.65-.19 1.07 1.07 0 00-.64.19 1.31 1.31 0 00-.43.54 2.24 2.24 0 00-.15.86 2.26 2.26 0 00.15.87 1.26 1.26 0 00.43.55 1.16 1.16 0 00.65.19 1.12 1.12 0 00.64-.19zm2.67-3.73h.95v.7a1.47 1.47 0 01.54-.57 1.71 1.71 0 01.88-.22 1.54 1.54 0 011.18.46 1.81 1.81 0 01.42 1.26v3h-1v-2.81a1.22 1.22 0 00-.24-.81 1 1 0 00-.74-.28 1.11 1.11 0 00-.58.15 1 1 0 00-.38.42 1.39 1.39 0 00-.14.63v2.7h-.95zm7.92 4.41a1.33 1.33 0 01-.33-1v-2.65h-.67v-.76h.67V8.9h1v1.2h.87v.76h-.87v2.59a.6.6 0 00.15.48.7.7 0 00.46.13h.26v.74h-.49a1.52 1.52 0 01-1.05-.29zm2.58-6.13h.95v2.48a1.33 1.33 0 01.55-.62 1.68 1.68 0 01.89-.23 1.6 1.6 0 01.86.23 1.5 1.5 0 01.57.65 2.17 2.17 0 01.21 1v2.86h-1v-2.7a1.38 1.38 0 00-.27-.9 1 1 0 00-.78-.32 1 1 0 00-.57.16 1 1 0 00-.38.42 1.44 1.44 0 00-.14.64v2.68h-.95zm6.16 6.14a1.84 1.84 0 01-.75-.83 2.75 2.75 0 01-.27-1.26 2.78 2.78 0 01.27-1.26 2 2 0 01.74-.85 2.27 2.27 0 012.24 0 1.91 1.91 0 01.73.81 2.8 2.8 0 01.25 1.22v.33h-3.75V12h3.29l-.47.63v-.37a2 2 0 00-.15-.81 1 1 0 00-.41-.48 1.08 1.08 0 00-.6-.16 1.1 1.1 0 00-1 .66 1.86 1.86 0 00-.15.79v.37a1.79 1.79 0 00.15.77 1.21 1.21 0 00.43.49 1.31 1.31 0 00.64.11 1.26 1.26 0 00.49-.09.93.93 0 00.36-.23.72.72 0 00.2-.32h.95v.05a1.61 1.61 0 01-.63 1 1.74 1.74 0 01-.59.31 2.3 2.3 0 01-.77.12 2.15 2.15 0 01-1.2-.32z" fill="#fff"/></svg>