<svg xmlns="http://www.w3.org/2000/svg" viewBox="0 0 135 40"><defs><linearGradient id="a" x1="31.8" y1="183.29" x2="15.02" y2="166.51" gradientTransform="matrix(1 0 0 -1 0 202)" gradientUnits="userSpaceOnUse"><stop offset="0" stop-color="#00a0ff"/><stop offset=".01" stop-color="#00a1ff"/><stop offset=".26" stop-color="#00beff"/><stop offset=".51" stop-color="#00d2ff"/><stop offset=".76" stop-color="#00dfff"/><stop offset="1" stop-color="#00e3ff"/></linearGradient><linearGradient id="b" x1="43.83" y1="172" x2="19.64" y2="172" gradientTransform="matrix(1 0 0 -1 0 202)" gradientUnits="userSpaceOnUse"><stop offset="0" stop-color="#ffe000"/><stop offset=".41" stop-color="#ffbd00"/><stop offset=".78" stop-color="orange"/><stop offset="1" stop-color="#ff9c00"/></linearGradient><linearGradient id="c" x1="34.83" y1="169.7" x2="12.07" y2="146.95" gradientTransform="matrix(1 0 0 -1 0 202)" gradientUnits="userSpaceOnUse"><stop offset="0" stop-color="#ff3a44"/><stop offset="1" stop-color="#c31162"/></linearGradient><linearGradient id="d" x1="17.3" y1="191.82" x2="27.46" y2="181.66" gradientTransform="matrix(1 0 0 -1 0 202)" gradientUnits="userSpaceOnUse"><stop offset="0" stop-color="#32a071"/><stop offset=".07" stop-color="#2da771"/><stop offset=".48" stop-color="#15cf74"/><stop offset=".8" stop-color="#06e775"/><stop offset="1" stop-color="#00f076"/></linearGradient></defs><rect width="135" height="40" rx="5"/><path d="M130 .8a4.2 4.2 0 014.2 4.2v30a4.2 4.2 0 01-4.2 4.2H5A4.2 4.2 0 01.8 35V5A4.2 4.2 0 015 .8h125m0-.8H5a5 5 0 00-5 5v30a5 5 0 005 5h125a5 5 0 005-5V5a5 5 0 00-5-5z" fill="#a6a6a6"/><path d="M68.14 21.75A4.26 4.26 0 1072.41 26a4.19 4.19 0 00-4.27-4.25zm0 6.83a2.58 2.58 0 112.4-2.58 2.46 2.46 0 01-2.4 2.58zm-9.32-6.83A4.26 4.26 0 1063.09 26a4.19 4.19 0 00-4.27-4.25zm0 6.83a2.58 2.58 0 112.4-2.58 2.46 2.46 0 01-2.4 2.58zm-11.08-5.52v1.8h4.32a3.77 3.77 0 01-1 2.27 4.42 4.42 0 01-3.34 1.32 4.8 4.8 0 010-9.6A4.64 4.64 0 0151 20.14l1.27-1.27a6.3 6.3 0 00-4.53-1.82 6.61 6.61 0 100 13.21 6.07 6.07 0 004.61-1.85 6 6 0 001.56-4.23 6.27 6.27 0 00-.09-1.12zm45.31 1.4a4 4 0 00-3.64-2.71 4 4 0 00-4 4.25 4.23 4.23 0 007.76 2.37l-1.45-1a2.41 2.41 0 01-2.09 1.17 2.15 2.15 0 01-2.06-1.29l5.69-2.35zm-5.8 1.42a2.34 2.34 0 012.23-2.49 1.64 1.64 0 011.57.91zM82.63 30h1.87V17.5h-1.87zm-3.06-7.3h-.07a2.94 2.94 0 00-2.24-1 4.26 4.26 0 000 8.51 2.88 2.88 0 002.24-1h.07v.61c0 1.63-.87 2.5-2.27 2.5a2.36 2.36 0 01-2.15-1.51l-1.62.67A4 4 0 0077.3 34c2.19 0 4-1.29 4-4.43V22h-1.73zm-2.15 5.88a2.58 2.58 0 010-5.15A2.39 2.39 0 0179.7 26a2.38 2.38 0 01-2.28 2.58zm24.39-11.08h-4.48V30h1.87v-4.74h2.61a3.89 3.89 0 100-7.76zm0 6H99.2v-4.26h2.65a2.14 2.14 0 110 4.28zm11.54-1.79a3.49 3.49 0 00-3.33 1.91l1.65.69a1.78 1.78 0 011.71-.91 1.8 1.8 0 012 1.61v.12a4.18 4.18 0 00-1.95-.48c-1.78 0-3.6 1-3.6 2.82a2.89 2.89 0 003.11 2.75 2.65 2.65 0 002.38-1.22h.06v1h1.8v-4.81c0-2.19-1.66-3.46-3.79-3.46zm-.23 6.85c-.61 0-1.46-.31-1.46-1.06 0-1 1.06-1.34 2-1.34a3.32 3.32 0 011.7.42 2.26 2.26 0 01-2.2 2zM123.74 22l-2.14 5.42h-.06L119.32 22h-2l3.33 7.58-1.9 4.21h1.95L125.82 22zm-16.8 8h1.86V17.5h-1.86z" fill="#fff"/><path d="M20.44 17.54a2 2 0 00-.47 1.4v22.12a1.94 1.94 0 00.47 1.4l.07.08L32.9 30.15v-.3L20.51 17.47z" transform="translate(-10 -10)" fill="url(#a)"/><path d="M37 34.28l-4.1-4.13v-.3l4.1-4.13.09.06L42 28.56c1.4.79 1.4 2.09 0 2.89l-4.89 2.78z" transform="translate(-10 -10)" fill="url(#b)"/><path d="M37.12 34.22L32.9 30 20.44 42.46a1.62 1.62 0 002.07.07l14.61-8.31" transform="translate(-10 -10)" fill="url(#c)"/><path d="M37.12 25.78l-14.61-8.3a1.61 1.61 0 00-2.07.06L32.9 30z" transform="translate(-10 -10)" fill="url(#d)"/><path d="M27 24.13l-14.49 8.25a1.66 1.66 0 01-2 0l-.07.07.07.08a1.66 1.66 0 002 0l14.61-8.31z" opacity=".2" style="isolation:isolate"/><path d="M10.44 32.32a2 2 0 01-.44-1.41v.15a1.94 1.94 0 00.47 1.4l.07-.07zM32 21.3l-5 2.83.09.09L32 21.44A1.75 1.75 0 0033.06 20 1.86 1.86 0 0132 21.3z" opacity=".12" style="isolation:isolate"/><path d="M12.51 7.62L32 18.7a1.86 1.86 0 011.06 1.3A1.75 1.75 0 0032 18.56L12.51 7.48c-1.39-.8-2.54-.14-2.54 1.46v.15c.03-1.6 1.15-2.26 2.54-1.47z" fill="#fff" opacity=".25" style="isolation:isolate"/><path d="M42.25 13.13V6.69h2a3.24 3.24 0 012.37.89 3.13 3.13 0 01.9 2.33 3.13 3.13 0 01-.9 2.34 3.23 3.23 0 01-2.37.88zm.83-5.65v4.86h1.14A2.39 2.39 0 0046 11.7a2.43 2.43 0 00.65-1.79A2.42 2.42 0 0046 8.13a2.39 2.39 0 00-1.77-.65zm4.86 3.45a2.33 2.33 0 01.63-1.68 2.18 2.18 0 011.63-.67 2.11 2.11 0 011.62.67 2.5 2.5 0 010 3.36 2.11 2.11 0 01-1.62.67 2.18 2.18 0 01-1.63-.67 2.33 2.33 0 01-.63-1.68zm.82 0a1.6 1.6 0 00.42 1.15 1.31 1.31 0 001 .44 1.34 1.34 0 001-.44 1.63 1.63 0 00.41-1.15 1.61 1.61 0 00-.41-1.14 1.36 1.36 0 00-1-.45 1.34 1.34 0 00-1 .45 1.57 1.57 0 00-.42 1.14zm10.62-2.21L58 13.13h-.84L56 9.75l-1.09 3.38h-.84l-1.42-4.41h.86l1 3.33 1.09-3.33h.86l1.09 3.33 1-3.33zm.54 0h.79v.62a1.45 1.45 0 01.58-.54 1.79 1.79 0 012.06.24 1.86 1.86 0 01.44 1.32v2.77H63v-2.71a1 1 0 00-1.09-1.08 1 1 0 00-.83.4 1.43 1.43 0 00-.33 1v2.44h-.83zm5.71-2.03v6.44h-.83V6.69zm.71 4.24A2.3 2.3 0 0167 9.25a2.31 2.31 0 013.25 0 2.5 2.5 0 010 3.36 2.31 2.31 0 01-3.25 0 2.3 2.3 0 01-.66-1.68zm.83 0a1.63 1.63 0 00.41 1.15 1.34 1.34 0 001 .44 1.31 1.31 0 001-.44 1.6 1.6 0 00.42-1.15 1.57 1.57 0 00-.42-1.14 1.34 1.34 0 00-1-.45 1.36 1.36 0 00-1 .45 1.61 1.61 0 00-.41 1.14zm6.14-2.35a2 2 0 011.44.49 1.74 1.74 0 01.54 1.35v2.71h-.8v-.61a1.57 1.57 0 01-1.37.76 1.82 1.82 0 01-1.22-.43 1.38 1.38 0 01-.49-1.08 1.3 1.3 0 01.52-1.09 2.16 2.16 0 011.38-.41 2.41 2.41 0 011.21.27v-.19a.92.92 0 00-.34-.73 1.17 1.17 0 00-.8-.3 1.27 1.27 0 00-1.1.58l-.73-.46a2.06 2.06 0 011.76-.86zm-1.07 3.2a.65.65 0 00.27.54 1 1 0 00.64.22 1.3 1.3 0 00.93-.39 1.18 1.18 0 00.41-.91 1.69 1.69 0 00-1.08-.3 1.43 1.43 0 00-.84.24.72.72 0 00-.33.6zm5.76 1.5a1.92 1.92 0 01-1.48-.69 2.41 2.41 0 01-.62-1.66 2.45 2.45 0 01.62-1.67A2 2 0 0178 8.58a1.89 1.89 0 01.89.21 1.48 1.48 0 01.61.55V6.72h.83v6.44h-.79v-.61a1.55 1.55 0 01-.61.55 1.89 1.89 0 01-.93.18zm.14-.76a1.26 1.26 0 001-.44 1.84 1.84 0 000-2.29 1.34 1.34 0 00-2 0 1.64 1.64 0 00-.41 1.14 1.61 1.61 0 00.41 1.14 1.29 1.29 0 001.02.45zm4.95-1.59a2.3 2.3 0 01.64-1.68 2.31 2.31 0 013.25 0 2.52 2.52 0 010 3.36 2.31 2.31 0 01-3.25 0 2.3 2.3 0 01-.64-1.68zm.83 0a1.59 1.59 0 00.41 1.15 1.34 1.34 0 001 .44 1.32 1.32 0 001-.44 1.6 1.6 0 00.42-1.15 1.57 1.57 0 00-.42-1.14 1.34 1.34 0 00-1-.45 1.36 1.36 0 00-1 .45 1.57 1.57 0 00-.41 1.14zm4.37-2.21h.79v.62a1.45 1.45 0 01.58-.54 1.59 1.59 0 01.81-.22 1.63 1.63 0 011.25.46 1.86 1.86 0 01.44 1.32v2.77h-.83v-2.71a1 1 0 00-1.09-1.08 1 1 0 00-.83.4 1.43 1.43 0 00-.33 1v2.44h-.83zm8.6 4.49a1.26 1.26 0 01-.89-.34 1.23 1.23 0 01-.37-.92V9.48h-.77v-.76h.77V7.37h.83v1.35h1.08v.76h-1.08v2.2a.8.8 0 00.17.59.56.56 0 00.39.16h.19a.76.76 0 00.18-.06l.26.74a2.2 2.2 0 01-.76.1zm1.49-6.52h.83v2.62a1.39 1.39 0 01.58-.54 1.59 1.59 0 01.81-.22 1.63 1.63 0 011.25.46 1.86 1.86 0 01.44 1.32v2.77h-.83v-2.58c0-.79-.35-1.18-1.06-1.18a1.09 1.09 0 00-.85.41 1.5 1.5 0 00-.34 1v2.4h-.83zm6.86 6.59a2.08 2.08 0 01-1.6-.67 2.33 2.33 0 01-.63-1.68 2.4 2.4 0 01.61-1.68 2.21 2.21 0 013.13 0 2.59 2.59 0 01.58 1.78v.09h-3.47a1.48 1.48 0 00.43 1.05 1.41 1.41 0 001 .39 1.38 1.38 0 001.25-.79l.73.36a2.15 2.15 0 01-.82.87 2.28 2.28 0 01-1.21.28zm-1.32-2.88h2.52a1.09 1.09 0 00-.37-.76 1.3 1.3 0 00-.9-.3 1.19 1.19 0 00-.81.28 1.41 1.41 0 00-.44.78z" fill="#fff"/></svg>